# xmcd CD database file
#
# Track frame offsets:
#	150
#	26513
#	53384
#	73750
#	97651
#	141135
#	158089
#	181608
#	206217
#	230311
#
# Disc length: 3406 seconds
#
# Revision: 0
# Processed by: cddbd v1.5.2PL0 Copyright (c) Steve Scherf et al.
# Submitted via: CDex 1.70beta2
#
DISCID=750d4c0a
DTITLE=Eric Roeren - Joy of a Toy
DYEAR=1999
DGENRE=Jazz
TTITLE0=A Fuzzphony
TTITLE1=Joy of a Toy
TTITLE2=Peace
TTITLE3=The Elevation of Colin Evans
TTITLE4=Free - TTZ - Forerunner
TTITLE5=For Twan
TTITLE6=Jayne
TTITLE7=Free - EB
TTITLE8=Embraceable You
TTITLE9=Written in Red
EXTD=YEAR: 1999
EXTT0=
EXTT1=
EXTT2=
EXTT3=
EXTT4=
EXTT5=
EXTT6=
EXTT7=
EXTT8=
EXTT9=
PLAYORDER=
